<?xml version="1.0" encoding="UTF-8"?><svg id="Layer_2" xmlns="http://www.w3.org/2000/svg" viewBox="0 0 474.4 474.4"><defs><style>.cls-1{fill:#fff;}</style></defs><g id="Layer_1-2"><path class="cls-1" d="M237.2,474.4c130.8,0,237.2-106.4,237.2-237.2S368,0,237.2,0,0,106.4,0,237.2s106.4,237.2,237.2,237.2h0ZM163,217.5c6.8-6.8,17.9-6.8,24.7,0l38.1,38.1,93.5-93.5c6.8-6.8,17.9-6.8,24.7,0,6.8,6.8,6.8,17.9,0,24.7l-105.9,105.8c-3.3,3.3-7.7,5.1-12.4,5.1s-9.1-1.8-12.4-5.1l-50.3-50.4c-6.9-6.8-6.9-17.9,0-24.7h0Z"/></g></svg>