<?xml version="1.0" encoding="UTF-8"?><svg id="Layer_2" xmlns="http://www.w3.org/2000/svg" viewBox="0 0 418.9 532"><defs><style>.cls-1{fill:#fff;}</style></defs><g id="Layer_1-2"><g><path class="cls-1" d="M397.7,39.2h-112v-1.1c0-21.3-16.8-38.1-38.1-38.1h-76.2c-21.3,0-38.1,16.8-38.1,38.1v1.1H21.3C9.5,39.2,0,48.7,0,60.5v21.3c0,11.8,9.5,21.3,21.3,21.3H397.6c11.8,0,21.3-9.5,21.3-21.3v-21.3c0-11.8-9.5-21.3-21.2-21.3Z"/><path class="cls-1" d="M369.7,132.2H49.3c-6.2,0-10.6,5-10.1,11.2l15.7,324.2c1.7,35.8,31.4,64.4,67.2,64.4h174.2c35.8,0,65.5-28,67.2-64.4l15.7-324.2c1.1-5.6-3.9-11.2-9.5-11.2h0ZM174.8,445.2c0,10.1-7.8,17.9-17.9,17.9s-17.9-7.8-17.9-17.9V219.5c0-10.1,7.8-17.9,17.9-17.9s17.9,7.8,17.9,17.9v225.7Zm105.3,0c0,10.1-7.8,17.9-17.9,17.9s-17.9-7.8-17.9-17.9V219.5c0-10.1,7.8-17.9,17.9-17.9s17.9,7.8,17.9,17.9v225.7Z"/></g></g></svg>