<?xml version="1.0" encoding="UTF-8"?><svg id="Layer_2" xmlns="http://www.w3.org/2000/svg" viewBox="0 0 501.6 501.68"><defs><style>.cls-1{fill:#fff;fill-rule:evenodd;}</style></defs><g id="Layer_1-2"><g><path class="cls-1" d="M289.2,46.57c9.7,0,17.5,7.8,17.5,17.5s-7.8,17.5-17.5,17.5H87.5c-29,0-52.5,23.5-52.5,52.5V414.07c0,29,23.5,52.5,52.5,52.5H367.5c29,0,52.5-23.5,52.5-52.5V212.37c0-9.7,7.8-17.5,17.5-17.5s17.5,7.8,17.5,17.5v201.8c0,48.3-39.2,87.5-87.5,87.5H87.5C39.2,501.68,0,462.47,0,414.18V134.18C0,85.88,39.2,46.68,87.5,46.68l201.7-.1Z"/><path class="cls-1" d="M486.3,89.57l-206.3,206.3c-1.9,1.9-4.2,3.4-6.8,4.2l-74.3,24.7c-6.3,2.1-13.2,.5-17.9-4.2-4.7-4.7-6.3-11.6-4.2-17.9l24.7-74.2c.9-2.6,2.3-4.9,4.2-6.8L412,15.38c20.5-20.5,53.7-20.5,74.2,0l.1,.1c20.4,20.4,20.4,53.6,0,74.1h0Zm-24.8-24.8c6.8-6.8,6.8-17.9,0-24.7l-.1-.1c-6.8-6.8-17.9-6.8-24.7,0L233.4,243.37l-12.4,37.1,37.1-12.4L461.5,64.77Z"/><path class="cls-1" d="M445,106.07c6.8,6.8,6.8,17.9,0,24.8-6.8,6.8-17.9,6.8-24.7,0l-49.5-49.5c-6.8-6.8-6.8-17.9,0-24.7s17.9-6.8,24.8,0l49.4,49.4Z"/></g></g></svg>