<?xml version="1.0" encoding="UTF-8"?>
<svg width="700pt" height="700pt" version="1.1" viewBox="0 0 700 700" xmlns="http://www.w3.org/2000/svg">
 <path d="m356.02 499.69c130.79 0 237.19-106.4 237.19-237.19s-106.4-237.19-237.19-237.19c-130.79 0-237.19 106.4-237.19 237.19s106.4 237.19 237.19 237.19zm-74.238-256.93c6.8359-6.8359 17.91-6.8359 24.746 0l38.051 38.059 93.523-93.531c6.8359-6.8359 17.91-6.8359 24.746 0 6.8359 6.8359 6.8359 17.91 0 24.746l-105.9 105.91c-3.2812 3.2812-7.7344 5.1289-12.371 5.1289-4.6406 0-9.0898-1.8477-12.371-5.1289l-50.422-50.43c-6.8398-6.8398-6.8398-17.914-0.003906-24.75z"/>
</svg>
