<?xml version="1.0" encoding="UTF-8"?>
<svg width="700pt" height="700pt" version="1.1" viewBox="0 0 700 700" xmlns="http://www.w3.org/2000/svg">
 <g fill-rule="evenodd">
  <path d="m388.43 75.832c9.6602 0 17.5 7.8398 17.5 17.5 0 9.6602-7.8398 17.5-17.5 17.5h-201.76c-29.004 0-52.5 23.496-52.5 52.5v280c0 29.004 23.496 52.5 52.5 52.5h280c29.004 0 52.5-23.496 52.5-52.5v-201.76c0-9.6602 7.8398-17.5 17.5-17.5 9.6602 0 17.5 7.8398 17.5 17.5v201.76c0 48.324-39.176 87.5-87.5 87.5h-280c-48.324 0-87.5-39.176-87.5-87.5v-280c0-48.324 39.176-87.5 87.5-87.5z"/>
  <path d="m585.48 118.77-206.29 206.29c-1.9141 1.9141-4.2461 3.3594-6.8359 4.2227l-74.246 24.734c-6.2773 2.1016-13.207 0.46484-17.898-4.2227-4.6914-4.6914-6.3242-11.621-4.2227-17.898l24.734-74.246c0.86328-2.5898 2.3086-4.9219 4.2227-6.8359l206.29-206.29c20.488-20.465 53.691-20.465 74.176 0l0.070313 0.070313c20.465 20.488 20.465 53.691 0 74.176zm-24.758-24.734c6.8125-6.8125 6.8125-17.875 0-24.688l-0.070312-0.070312c-6.8125-6.8125-17.875-6.8125-24.688 0l-203.35 203.35-12.367 37.125 37.125-12.367z"/>
  <path d="m544.18 135.31c6.8359 6.8359 6.8359 17.922 0 24.758-6.8125 6.8125-17.922 6.8125-24.734 0l-49.512-49.512c-6.8125-6.8125-6.8125-17.922 0-24.734 6.8359-6.8359 17.922-6.8359 24.758 0z"/>
 </g>
</svg>
